<?xml version="1.0" encoding="utf-8"?>
<!-- Generator: Adobe Illustrator 16.0.4, SVG Export Plug-In . SVG Version: 6.00 Build 0)  -->
<!DOCTYPE svg PUBLIC "-//W3C//DTD SVG 1.1//EN" "http://www.w3.org/Graphics/SVG/1.1/DTD/svg11.dtd">
<svg version="1.1" id="Layer_1" xmlns="http://www.w3.org/2000/svg" xmlns:xlink="http://www.w3.org/1999/xlink" x="0px" y="0px"
	 width="89px" height="14px" viewBox="0 0 89 14" enable-background="new 0 0 89 14" xml:space="preserve">
<g>
	<g opacity="0.7">
		<path d="M6.41,2.317h1.825l4.93,11.285h-2.081l-1.137-2.705H4.649l-1.152,2.705H1.48L6.41,2.317z M9.228,9.153L7.291,4.671
			L5.37,9.153H9.228z"/>
		<path d="M14.28,2.397h4.178c3.521,0,5.954,2.417,5.954,5.57v0.033c0,3.152-2.433,5.602-5.954,5.602H14.28V2.397z M18.458,11.81
			c2.354,0,3.89-1.584,3.89-3.777V8.001c0-2.193-1.536-3.811-3.89-3.811h-2.209v7.619H18.458z"/>
		<path d="M25.24,11.97l1.185-1.408c1.072,0.928,2.145,1.457,3.537,1.457c1.217,0,1.984-0.561,1.984-1.41v-0.031
			c0-0.801-0.447-1.232-2.528-1.713c-2.385-0.576-3.729-1.28-3.729-3.346V5.487c0-1.921,1.601-3.25,3.825-3.25
			c1.633,0,2.93,0.497,4.065,1.409l-1.056,1.488c-1.009-0.752-2.018-1.152-3.042-1.152c-1.152,0-1.824,0.592-1.824,1.328v0.032
			c0,0.864,0.512,1.249,2.657,1.762c2.368,0.576,3.602,1.424,3.602,3.281v0.031c0,2.098-1.649,3.346-4.002,3.346
			C28.201,13.763,26.585,13.171,25.24,11.97z"/>
		<path d="M38.202,8.849h-3.073V7.088h3.073V4.03h1.824v3.058H43.1v1.761h-3.073v3.057h-1.824V8.849z"/>
		<path d="M44.872,2.397h4.178c3.521,0,5.954,2.417,5.954,5.57v0.033c0,3.152-2.433,5.602-5.954,5.602h-4.178V2.397z M49.05,11.81
			c2.354,0,3.89-1.584,3.89-3.777V8.001c0-2.193-1.536-3.811-3.89-3.811h-2.209v7.619H49.05z"/>
		<path d="M60.554,2.317h1.825l4.93,11.285h-2.081l-1.137-2.705h-5.298l-1.152,2.705h-2.017L60.554,2.317z M63.371,9.153
			l-1.937-4.482l-1.921,4.482H63.371z"/>
		<path d="M71.177,4.223h-3.553V2.397h9.091v1.825h-3.553v9.38h-1.985V4.223z"/>
		<path d="M81.962,2.317h1.825l4.93,11.285h-2.081l-1.137-2.705h-5.298l-1.152,2.705h-2.017L81.962,2.317z M84.779,9.153
			l-1.937-4.482l-1.921,4.482H84.779z"/>
	</g>
	<g>
		<g>
			<path fill="#FFFFFF" d="M5.41,1.317h1.825l4.93,11.285h-2.081L8.947,9.897H3.649l-1.152,2.705H0.48L5.41,1.317z M8.228,8.153
				L6.291,3.671L4.37,8.153H8.228z"/>
			<path fill="#FFFFFF" d="M13.28,1.397h4.178c3.521,0,5.954,2.417,5.954,5.57v0.033c0,3.152-2.433,5.602-5.954,5.602H13.28V1.397z
				 M17.458,10.81c2.354,0,3.89-1.584,3.89-3.777V7.001c0-2.193-1.536-3.811-3.89-3.811h-2.209v7.619H17.458z"/>
			<path fill="#FFFFFF" d="M24.24,10.97l1.185-1.408c1.072,0.928,2.145,1.457,3.537,1.457c1.217,0,1.984-0.561,1.984-1.41V9.577
				c0-0.801-0.447-1.232-2.528-1.713c-2.385-0.576-3.729-1.28-3.729-3.346V4.487c0-1.921,1.601-3.25,3.825-3.25
				c1.633,0,2.93,0.497,4.065,1.409l-1.056,1.488c-1.009-0.752-2.018-1.152-3.042-1.152c-1.152,0-1.824,0.592-1.824,1.328v0.032
				c0,0.864,0.512,1.249,2.657,1.762c2.368,0.576,3.602,1.424,3.602,3.281v0.031c0,2.098-1.649,3.346-4.002,3.346
				C27.201,12.763,25.585,12.171,24.24,10.97z"/>
			<path fill="#FFFFFF" d="M37.202,7.849h-3.073V6.088h3.073V3.03h1.824v3.058H42.1v1.761h-3.073v3.057h-1.824V7.849z"/>
			<path fill="#FFFFFF" d="M43.872,1.397h4.178c3.521,0,5.954,2.417,5.954,5.57v0.033c0,3.152-2.433,5.602-5.954,5.602h-4.178V1.397
				z M48.05,10.81c2.354,0,3.89-1.584,3.89-3.777V7.001c0-2.193-1.536-3.811-3.89-3.811h-2.209v7.619H48.05z"/>
			<path fill="#FFFFFF" d="M59.554,1.317h1.825l4.93,11.285h-2.081l-1.137-2.705h-5.298l-1.152,2.705h-2.017L59.554,1.317z
				 M62.371,8.153l-1.937-4.482l-1.921,4.482H62.371z"/>
			<path fill="#FFFFFF" d="M70.177,3.223h-3.553V1.397h9.091v1.825h-3.553v9.38h-1.985V3.223z"/>
			<path fill="#FFFFFF" d="M80.962,1.317h1.825l4.93,11.285h-2.081l-1.137-2.705h-5.298l-1.152,2.705h-2.017L80.962,1.317z
				 M83.779,8.153l-1.937-4.482l-1.921,4.482H83.779z"/>
		</g>
	</g>
</g>
</svg>
